<svg width="91" height="20" viewBox="0 0 91 20" fill="none" xmlns="http://www.w3.org/2000/svg">
<path fill-rule="evenodd" clip-rule="evenodd" d="M9.81592 0.124001C12.3639 0.124001 15.0939 0.67 17.0439 2.438L14.6259 4.882C13.3779 3.686 11.5319 3.088 9.81592 3.088C6.04592 3.088 3.49792 6 3.49792 9.666C3.49792 13.462 5.88992 16.504 9.84192 16.504C11.2199 16.504 12.8319 16.27 14.1319 15.542V11.2H10.3619V8.236H17.4079V17.648C14.9639 18.948 12.3899 19.468 9.81592 19.468C4.09592 19.468 0.065918 15.568 0.065918 9.874C0.065918 4.076 4.01792 0.124001 9.81592 0.124001ZM26.6579 6.208C30.6099 6.208 32.5079 9.198 32.5079 12.968V13.852H22.9919C23.1999 15.646 24.5519 16.816 26.3459 16.816C27.7499 16.816 28.8159 16.218 29.6999 15.126L31.9359 16.816C30.5839 18.48 28.7899 19.312 26.6579 19.312C22.8359 19.312 19.8719 16.66 19.8719 12.76C19.8719 8.886 22.8359 6.208 26.6579 6.208ZM22.9919 11.512H29.3879C29.3619 9.562 28.0359 8.548 26.1899 8.548C24.3439 8.548 23.2259 9.744 22.9919 11.512ZM41.7579 6.208C45.4759 6.208 46.3079 9.094 46.3079 11.018V19H43.1879V12.526C43.1879 10.03 42.3819 9.016 40.8999 9.016C38.8979 9.016 38.0399 10.472 38.0399 12.136V19H34.9199V6.52H37.8839V8.522H37.9359C38.6899 6.884 40.1199 6.208 41.7579 6.208ZM55.5059 6.208C59.4579 6.208 61.3559 9.198 61.3559 12.968V13.852H51.8399C52.0479 15.646 53.3999 16.816 55.1939 16.816C56.5979 16.816 57.6639 16.218 58.5479 15.126L60.7839 16.816C59.4319 18.48 57.6379 19.312 55.5059 19.312C51.6839 19.312 48.7199 16.66 48.7199 12.76C48.7199 8.886 51.6839 6.208 55.5059 6.208ZM51.8399 11.512H58.2359C58.2099 9.562 56.8839 8.548 55.0379 8.548C53.1919 8.548 52.0739 9.744 51.8399 11.512ZM68.0319 6.208C69.9819 6.208 71.5939 6.884 72.5039 8.106L70.4239 9.978C69.7999 9.12 69.0199 8.704 67.9799 8.704C66.9659 8.704 66.1599 9.224 66.1599 10.03C66.1599 11.044 67.5639 11.226 69.1239 11.59C71.0479 12.032 72.8939 12.734 72.8939 15.308C72.8939 17.934 70.5799 19.312 67.4859 19.312C65.5619 19.312 63.9239 18.818 62.6499 17.388L64.7299 15.438C65.7959 16.608 66.6279 16.972 67.6939 16.972C68.8379 16.972 69.7739 16.4 69.7739 15.542C69.7739 14.346 68.2659 14.138 66.6799 13.774C64.9899 13.384 63.0399 12.786 63.0399 10.238C63.0399 7.196 65.8999 6.208 68.0319 6.208ZM76.3979 0.410001C77.5419 0.410001 78.4259 1.216 78.4259 2.282C78.4259 3.4 77.5159 4.154 76.3979 4.154C75.2799 4.154 74.4219 3.296 74.4219 2.282C74.4219 1.268 75.2799 0.410001 76.3979 0.410001ZM74.8639 6.52H77.9839V19H74.8639V6.52ZM85.3359 6.208C87.2859 6.208 88.8979 6.884 89.8079 8.106L87.7279 9.978C87.1039 9.12 86.3239 8.704 85.2839 8.704C84.2699 8.704 83.4639 9.224 83.4639 10.03C83.4639 11.044 84.8679 11.226 86.4279 11.59C88.3519 12.032 90.1979 12.734 90.1979 15.308C90.1979 17.934 87.8839 19.312 84.7899 19.312C82.8659 19.312 81.2279 18.818 79.9539 17.388L82.0339 15.438C83.0999 16.608 83.9319 16.972 84.9979 16.972C86.1419 16.972 87.0779 16.4 87.0779 15.542C87.0779 14.346 85.5699 14.138 83.9839 13.774C82.2939 13.384 80.3439 12.786 80.3439 10.238C80.3439 7.196 83.2039 6.208 85.3359 6.208Z" fill="#111111"/>
</svg>
